<?xml version="1.0" standalone="no"?>
<!DOCTYPE svg PUBLIC "-//W3C//DTD SVG 20010904//EN"
 "http://www.w3.org/TR/2001/REC-SVG-20010904/DTD/svg10.dtd">
<svg version="1.0" xmlns="http://www.w3.org/2000/svg"
 width="2234.000000pt" height="700.000000pt" viewBox="0 0 2234.000000 700.000000"
 preserveAspectRatio="xMidYMid meet">

<!-- Más espacio arriba y abajo con nuevo viewBox -->
<g transform="translate(0.000000,640.000000) scale(0.100000,-0.100000)"
fill="#000000" stroke="none">
<path d="M1111 5778 c-409 -4 -746 -10 -748 -12 -2 -2 191 -288 429 -635 l433
-632 1065 6 c1577 10 1686 2 1942 -151 95 -57 254 -208 315 -299 144 -215 213
-448 213 -718 0 -321 -81 -545 -284 -789 -108 -130 -246 -227 -400 -279 -145
-50 -261 -61 -711 -68 -503 -8 -449 9 -638 -199 -73 -81 -189 -205 -258 -277
-70 -71 -266 -278 -437 -460 -291 -308 -310 -330 -289 -340 35 -16 1885 -13
2067 3 426 38 660 108 969 291 390 231 689 553 897 967 280 558 345 1188 188
1824 -149 604 -504 1101 -1014 1420 -265 166 -624 291 -949 330 -237 28 -1311
35 -2790 18z"/>
<path d="M8535 5593 c-348 -29 -618 -99 -890 -232 -225 -110 -373 -217 -558
-399 -333 -329 -541 -745 -622 -1247 -26 -155 -31 -529 -11 -685 35 -267 102
-492 211 -715 223 -454 636 -871 1091 -1098 529 -264 1193 -309 1766 -120 736
243 1331 910 1482 1663 38 187 49 339 43 555 -11 363 -79 649 -227 950 -262
534 -758 987 -1304 1190 -294 109 -679 163 -981 138z m345 -1328 c206 -31 374
-114 530 -262 227 -214 330 -468 317 -780 -8 -196 -54 -340 -158 -495 -65 -98
-211 -235 -314 -296 -259 -153 -603 -173 -887 -52 -149 63 -320 202 -426 345
-204 275 -245 676 -102 991 64 141 216 317 353 407 199 132 435 181 687 142z"/>
<path d="M11642 5570 c-37 -9 -77 -42 -98 -81 -11 -22 -15 -400 -24 -2224 -10
-2123 -10 -2198 8 -2229 10 -17 33 -41 52 -53 l33 -23 556 0 c533 0 557 1 588
20 71 43 67 9 73 665 6 664 1 630 83 675 50 28 116 23 154 -11 14 -13 259
-317 544 -675 347 -436 528 -655 546 -663 21 -8 212 -11 708 -9 l680 3 32 23
c44 32 70 100 55 150 -8 25 -234 310 -713 897 -386 473 -758 929 -827 1014
-120 146 -126 156 -130 206 -2 29 0 61 6 71 5 10 386 475 846 1033 617 748
837 1023 842 1047 14 75 -30 143 -104 163 -29 8 -237 11 -701 9 -650 -3 -660
-3 -688 -24 -15 -11 -263 -313 -550 -670 -287 -357 -536 -659 -554 -671 -60
-43 -153 -22 -196 44 -17 26 -18 62 -15 618 3 569 3 591 -16 625 -11 19 -35
44 -53 55 -33 19 -54 20 -569 22 -294 1 -550 -2 -568 -7z"/>
<path d="M16247 5566 c-47 -17 -64 -31 -85 -70 -15 -28 -17 -217 -25 -2233 -9
-2141 -9 -2203 9 -2234 11 -17 35 -40 54 -50 33 -18 92 -19 1606 -19 l1571 0
34 23 c29 19 74 101 308 562 296 583 302 598 262 662 -11 18 -32 40 -48 50
-26 17 -92 18 -1214 23 l-1188 5 -31 30 c-75 72 -58 205 33 248 31 15 86 17
495 17 302 0 470 4 489 11 15 6 39 20 52 32 13 12 147 269 298 571 237 476
273 553 268 580 -11 50 -38 90 -75 108 -32 17 -90 18 -765 18 -688 0 -732 1
-764 18 -50 27 -71 73 -71 155 0 84 19 129 69 159 l36 23 920 5 c848 5 923 6
947 22 19 13 102 166 304 565 236 466 277 554 277 591 0 46 -20 81 -67 116
l-27 21 -1817 2 c-1503 2 -1823 0 -1855 -11z"/>
<path d="M20930 5035 l0 -535 130 -1090 c72 -599 130 -1091 130 -1094 0 -3
196 -6 435 -6 l434 0 5 33 c3 17 64 506 136 1085 l130 1053 0 545 0 544 -700
0 -700 0 0 -535z"/>
<!-- Triángulo naranja - SIEMPRE NARANJA -->
<path d="M582 2221 l-103 -6 191 -277 190 -278 -384 -742 c-211 -409 -402
-781 -425 -827 l-42 -83 138 4 c103 3 146 8 169 21 18 9 81 72 142 140 60 68
507 546 992 1063 486 516 894 951 908 967 l26 27 -850 -2 c-467 -1 -895 -4
-952 -7z" fill="#FF6600"/>
<path d="M20970 1400 l0 -580 660 0 660 0 0 580 0 580 -660 0 -660 0 0 -580z"/>
</g>
</svg>